<svg version="1.1" id="Layer_1" x="0px" y="0px" viewBox="0 0 360 360" xml:space="preserve" width="360" height="360" xmlns="http://www.w3.org/2000/svg">
  <defs id="defs184"/>
  <g id="g92" transform="translate(-174 -327.443)"/>
  <g id="g184" transform="translate(-174 -327.443)">
    <g id="g93" transform="translate(-145.104 -11.552)">
      <path style="fill:#ffffff" d="M498.865 695.349c-97.53 0 -176.593 -79.063 -176.593 -176.594 0 -97.529 79.063 -176.593 176.593 -176.593" id="path92"/>
      <path style="fill:#ffffff" d="M496.489 342.162c97.531 0 176.593 79.063 176.593 176.594 0 97.529 -79.063 176.592 -176.593 176.592" id="path93"/>
    </g>
    <g id="g94" transform="translate(-145.104 -11.552)">
     
    </g>
    <path d="M489.359 463.985c-0.388 15.683 -6.29 41.891 -12.855 57.209 -3.959 9.24 -9.444 19.283 -10.559 27.981 -1.319 10.295 0.328 34.922 -4.487 40.387 -9.767 11.086 -17.422 7.919 -17.422 7.919s-0.85 16.579 -2.111 21.646c-2.834 11.399 -8.444 14.715 -10.295 15.573 -10.822 5.016 -19.328 -1.327 -24.286 2.64 -2.638 2.111 -2.111 3.431 -5.806 12.406 -1.833 4.453 0.263 10.559 -2.113 14.254 -2.704 4.205 -3.432 1.056 -7.919 7.391 -3.073 4.338 -2.638 8.711 -6.598 8.974 -28.855 1.916 -32.732 3.167 -57.81 -1.847 -3.378 -0.676 -4.486 -10.295 -5.543 -10.295 -3.993 0 -6.069 0 -9.503 -1.321 -4.445 -1.711 -0.526 -10.295 -2.11 -11.087 -4.406 -2.202 -6.601 -22.965 -8.448 -23.228 -11.025 -1.57 -26.232 -1.403 -32.468 -6.6 -11.087 -9.238 -6.83 -25.401 -6.83 -25.401s-8.077 -1.667 -13.496 -7.594c-15.08 -16.495 -3.502 -24.51 -13.196 -59.921 -2.773 -10.126 -8.832 -35.382 -7.837 -75.565 1.788 -72.264 61.819 -129.396 134.084 -127.608 72.265 1.791 129.396 61.823 127.608 134.087" id="path95"/>
    <path style="fill:#ffffff" d="M474.328 517.433c6.038 -14.818 11.878 -40.228 11.878 -57.215 0 -70.304 -56.993 -127.298 -127.298 -127.298 -70.304 0 -127.298 56.993 -127.298 127.298 0 9.11 -0.433 22.712 1.386 31.28 0.596 2.803 1.615 12.648 5.939 22.965 5.808 13.858 12.302 19.301 13.991 33.26 1.451 12.011 -3.168 12.274 0.527 32.072 0 0 2.639 7.128 7.259 10.031s7.391 1.98 7.391 1.98 -5.412 -4.885 -9.634 -10.428c-4.224 -5.543 -5.28 -9.503 -5.147 -12.274 0.131 -2.772 3.43 -14.913 3.827 -23.492s-7.523 -18.478 -11.087 -25.209 -5.543 -12.143 -7.258 -18.61 -2.507 -17.026 -2.507 -17.026 3.959 19.401 9.238 28.904 8.315 14.124 12.143 19.931c3.827 5.806 5.543 10.689 5.279 14.913s-4.62 15.046 -5.016 18.874 2.509 8.58 5.676 10.295 6.202 2.507 6.202 2.507 -8.446 -6.335 -8.446 -12.274c0 -5.94 4.355 -12.538 4.62 -15.573 0.263 -3.036 0.132 -10.426 -2.64 -15.046s-0.66 -4.224 -0.66 -4.224 1.188 -2.376 2.772 0 0.792 4.949 0.792 4.949 3.168 6.466 2.772 12.208 -2.772 10.558 -2.639 13.661c0.13 3.103 0.396 4.751 5.741 10.295s7.655 6.664 10.889 7.919c3.232 1.255 7.127 0.661 7.127 0.661s13.428 -0.792 20.259 -0.198 17.224 4.652 20.985 6.632c3.762 1.98 14.65 6.533 15.541 11.483 0.891 4.949 -1.089 3.86 -1.188 5.84s0.891 5.94 -0.099 6.335c-0.99 0.396 -4.455 0.198 -4.455 0.198s1.089 -1.881 1.287 -3.564c0.198 -1.682 -1.089 -3.563 -1.089 -5.147 0 -1.583 -1.782 -4.355 -1.782 -4.355s-2.079 1.979 -4.455 2.475c-2.375 0.495 -25.242 0.396 -25.242 0.396s-7.523 -0.396 -6.434 3.86c0.512 2.002 2.464 2.71 2.673 2.475 0 0 -10.591 0.099 -10.295 7.721 0.297 7.623 3.663 8.117 4.652 9.008s7.325 1.782 7.325 1.782 1.485 2.673 4.652 4.157c3.168 1.485 7.325 2.079 7.325 2.079l6.137 0.099s0.594 7.622 2.475 13.76c1.881 6.137 3.761 10.295 5.444 10.493s4.554 -3.069 7.622 -2.871c3.069 0.198 4.85 3.266 6.335 3.266s2.574 -1.385 3.563 -0.792c0.99 0.594 3.465 4.751 4.85 4.553 1.386 -0.198 4.751 -3.762 7.028 -3.564s4.356 3.465 5.543 3.564 3.267 -3.96 6.039 -4.356 1.287 1.287 2.574 0.792 4.554 -3.959 6.632 -6.137c2.079 -2.178 2.574 -4.949 3.564 -4.85s0.297 3.662 2.475 3.365 2.178 -3.959 2.772 -4.455c0.594 -0.495 1.287 -0.891 1.287 -0.891s-0.099 -6.137 -0.99 -7.028 -10.196 -0.495 -10.789 -0.891c-0.594 -0.396 3.563 -2.376 8.117 -4.652s5.543 -3.069 7.028 -3.662c1.484 -0.594 1.88 -0.099 10.987 0.396s12.868 -1.089 14.947 -7.325 3.663 -13.858 2.475 -15.145 -6.533 -2.871 -6.335 -3.762 8.612 -2.574 11.581 -3.068c2.97 -0.495 6.039 -1.386 5.543 -2.969 -0.495 -1.584 -9.502 0.891 -24.845 2.277 -15.344 1.385 -28.212 2.376 -32.963 2.178s-10.196 0.594 -9.8 -3.762 8.513 -10.196 12.968 -12.472c4.454 -2.277 17.025 -4.257 22.074 -4.257s13.265 1.98 20.293 4.059 10.097 4.455 14.254 1.386c4.158 -3.069 10.295 -5.247 10.295 -21.48 0 -8.263 3.564 -14.254 5.048 -16.927 1.541 -2.773 5.555 -9.139 9.641 -15.835 0 0 -7.099 14.746 -8.551 19.102s-1.847 9.239 -1.716 15.178c0.132 5.94 -0.263 9.109 -1.979 12.012s-7.656 7.39 -6.865 8.182c0.792 0.792 5.94 -1.318 8.315 -5.014 2.376 -3.697 3.036 -7.129 2.244 -15.575s-0.002 -7.391 0.527 -9.899 2.376 -3.695 2.376 -3.695 -1.717 1.582 -0.792 9.634 1.452 14.52 -0.131 17.555c-1.584 3.035 -10.164 10.824 -10.691 11.483s8.051 0.13 11.614 -6.865c3.563 -6.994 2.507 -16.759 2.376 -24.812 -0.132 -8.052 3.828 -20.195 6.996 -27.585 3.167 -7.395 6.929 -15.249 6.929 -15.249" id="path96"/>
    <path d="M333.765 579.399s15.244 3.366 17.422 4.949c2.178 1.584 4.949 12.274 4.949 12.274s2.97 -10.097 5.741 -12.868c2.772 -2.772 13.858 -2.574 20.194 -4.158" id="path97"/>
    <g id="g99" transform="translate(-145.104 -11.552)">
      <path style="fill:#ffffff" d="M441.138 576.342c-57.352 -34.477 -75.894 -108.914 -41.42 -166.264 34.472 -57.349 108.909 -75.894 166.26 -41.421" id="path98"/>
      <path style="fill:#ffffff" d="M565.28 368.235c57.351 34.474 75.894 108.913 41.417 166.261 -34.472 57.354 -108.911 75.899 -166.259 41.425" id="path99"/>
    </g>
    <g id="g100" transform="translate(-145.104 -11.552)">
      <path d="M418.965 383.35c-23.76 22.612 -37.29 53.122 -38.103 85.911 -1.675 67.686 52.03 124.117 119.718 125.793 32.789 0.811 63.932 -11.195 87.692 -33.807 23.758 -22.612 37.289 -53.122 38.101 -85.91 1.675 -67.687 -52.03 -124.118 -119.718 -125.794 -32.789 -0.811 -63.932 11.195 -87.69 33.807m81.695 208.437c-65.885 -1.632 -118.162 -56.561 -116.531 -122.446 0.789 -31.916 13.96 -61.615 37.088 -83.625s53.441 -33.697 85.358 -32.906c65.886 1.63 118.162 56.56 116.532 122.447 -0.789 31.915 -13.96 61.613 -37.088 83.624s-53.441 33.697 -85.359 32.906" id="path100"/>
    </g>
    <g id="g103" transform="translate(-145.104 -11.552)">
      <g id="g102">
        <g style="enable-background:new" id="g101"/>
      </g>
    </g>
    <path d="M345.446 632.654c0.065 2.838 5.543 10.228 6.27 10.097 0.724 -0.132 5.147 -5.149 2.178 -18.676s-4.751 -10.36 -4.751 -10.36 -0.792 6.994 -1.584 10.624 -2.113 8.315 -2.113 8.315" id="path103"/>
    <path d="M359.173 622.426c-0.594 2.178 -2.139 9.973 -0.594 16.234 1.32 5.346 3.562 3.762 4.223 3.366 0.66 -0.396 5.874 -2.509 5.807 -4.687s-2.968 -2.44 -3.695 -9.832 0.592 -11.484 -0.331 -12.143c-0.924 -0.659 -4.816 4.884 -5.41 7.062" id="path104"/>
    <path style="fill:#ffffff" d="M278.001 598.471c0.721 1.009 0.272 2.564 -1.002 3.476s-2.894 0.834 -3.614 -0.175 -0.271 -2.564 1.004 -3.475c1.274 -0.913 2.891 -0.834 3.612 0.174" id="path105"/>
    <path style="fill:#ffffff" d="M286.363 603.995c-0.628 0.792 -2.613 1.213 -3.576 0.447 -0.964 -0.764 -0.541 -2.424 0.087 -3.215 0.628 -0.792 1.919 -0.815 2.883 -0.049 0.963 0.764 1.234 2.026 0.606 2.817" id="path106"/>
    <path style="fill:#ffffff" d="M292.716 605.541c-0.427 0.917 -1.496 1.324 -2.388 0.909s-1.268 -1.495 -0.841 -2.413c0.678 -1.455 2.34 -2.25 3.793 -1.574 0.89 0.416 -0.137 2.16 -0.564 3.078" id="path107"/>
    <path style="fill:#ffffff" d="M299.714 605.581c0 0.958 -0.82 1.732 -1.831 1.732s-1.831 -0.775 -1.831 -1.732c0 -0.958 1.463 -2.821 2.475 -2.821s1.187 1.863 1.187 2.821" id="path108"/>
    <path style="fill:#ffffff" d="M312.384 640.375c0 3.499 -0.292 8.315 -1.386 8.315s-3.168 -5.41 -3.168 -8.909 1.084 -5.147 2.178 -5.147 2.376 2.242 2.376 5.741" id="path109"/>
    <path style="fill:#ffffff" d="M317.927 637.208c-1.405 0.088 0.099 4.256 0.198 5.642 0.099 1.385 -2.277 3.662 -3.069 6.83 -0.792 3.167 -1.782 13.066 1.386 13.561s3.663 -4.455 2.97 -11.681 -0.297 -6.335 -0.297 -6.335 0.792 1.782 1.683 4.553 1.98 4.355 2.376 2.277 -0.297 -9.206 -1.584 -11.681c-2.404 -4.62 -2.079 -3.265 -3.663 -3.166" id="path110"/>
    <path style="fill:#ffffff" d="M362.967 662.152c-1.485 -0.396 -3.663 0.99 -5.048 5.939s0.198 10.493 3.662 10.295 4.85 -1.188 5.544 -3.959c0.693 -2.772 0.693 -7.127 -1.089 -9.503s-3.069 -2.772 -3.069 -2.772" id="path111"/>
    <path style="fill:#ffffff" d="M374.548 661.459c-1.484 -0.495 -3.266 1.881 -3.86 7.622 -0.594 5.742 0.792 9.206 3.464 9.008 2.673 -0.198 3.564 -0.099 2.97 -8.018s-2.574 -8.612 -2.574 -8.612" id="path112"/>
    <path style="fill:#ffffff" d="M383.754 657.401c-1.484 3.068 -3.761 11.482 -2.277 15.343 1.485 3.86 2.376 2.969 2.969 2.079 0.594 -0.891 2.475 -5.048 2.574 -12.274s0.297 -7.424 -0.693 -7.82c-0.989 -0.397 -2.573 2.672 -2.573 2.672" id="path113"/>
    <path style="fill:#ffffff" d="M345.347 671.061c0.198 4.455 2.276 7.919 4.949 7.721s2.673 -1.682 2.97 -8.018c0.297 -6.335 -1.386 -8.216 -2.97 -8.216s-3.663 1.781 -4.356 3.761c-0.692 1.98 -0.593 4.752 -0.593 4.752" id="path114"/>
    <path style="fill:#ffffff" d="M327.034 653.54c-1.584 1.287 -2.277 4.158 -1.881 7.919 0.396 3.762 1.485 13.957 3.564 14.056s2.574 -4.455 2.574 -10.888c0 -6.434 -1.636 -9.308 -2.673 -10.691 -0.594 -0.792 -1.584 -0.396 -1.584 -0.396" id="path115"/>
    <path style="fill:#ffffff" d="M391.178 655.421c-1.188 3.959 -2.178 9.503 -0.198 10.097s4.85 -4.652 5.147 -6.632 0 -8.711 -1.484 -9.403c-1.485 -0.694 -3.465 5.938 -3.465 5.938" id="path116"/>
    <path style="fill:#ffffff" d="M399.493 636.02c-1.287 1.683 -1.782 9.998 -0.792 10.097s0.99 -2.079 2.475 -4.751 2.871 -5.048 2.079 -5.543 -3.762 0.197 -3.762 0.197" id="path117"/>
    <path style="fill:#ffffff" d="M427.341 618.664c-0.923 4.291 -1.713 9.437 -0.856 10.097 0.856 0.661 4.42 -2.045 5.806 -9.832s1.848 -10.822 0.661 -11.218c-2.204 -0.735 -5.596 10.879 -5.611 10.953" id="path118"/>
    <path style="fill:#ffffff" d="M242.103 531.588s4.652 12.67 4.949 25.242c0.297 12.571 -2.871 10.79 -1.881 19.699s5.939 13.265 9.305 15.442c8.01 5.183 7.599 2.752 12.868 3.465 0 0 -15.838 -5.94 -18.214 -16.432 -2.376 -10.493 1.287 -21.48 0 -29.3 -1.403 -8.534 -1.654 -8.483 -7.027 -18.116" id="path119"/>
    <path style="fill:#ffffff" d="M340.431 659.645s-3.434 0.397 -4.226 2.31 -2.772 10.162 -0.99 13.396 4.489 2.705 5.611 -0.858c1.12 -3.564 2.176 -11.483 0.922 -13.463 -1.252 -1.979 -1.317 -1.385 -1.317 -1.385" id="path120"/>
    <path style="fill:#ffffff" d="M438.814 605.63c-2.277 1.089 -1.386 2.871 -2.277 9.899s-1.881 7.82 -0.594 8.117 3.662 -4.949 4.157 -10.591c0.496 -5.643 0.991 -8.514 -1.286 -7.425" id="path121"/>
    <path style="fill:#ffffff" d="M289.75 611.141c-1.386 0.461 -2.707 3.629 -0.464 8.248 2.246 4.62 3.103 4.158 3.564 4.158 0.464 0 -1.253 -2.705 -1.516 -5.081 -0.266 -2.376 0.065 -6.269 -0.594 -6.929 -0.662 -0.66 -0.99 -0.396 -0.99 -0.396" id="path122"/>
    <path style="fill:#ffffff" d="M280.377 614.44c0.198 3.695 1.85 6.865 3.895 8.975 2.045 2.111 3.761 2.902 3.826 1.847 0.068 -1.055 -2.44 -2.507 -4.024 -7.061s1.321 -7.061 -1.782 -7.061c-0.554 0.001 -2.515 1.635 -1.915 3.3" id="path123"/>
    <path style="fill:#ffffff" d="M275.363 616.749c-0.925 -5.675 -0.594 -8.513 -2.639 -7.853 -2.048 0.661 -2.642 5.213 -1.454 8.842s5.611 7.192 6.666 7.325 1.123 0.396 1.188 -0.198 -1.188 -1.913 -2.311 -4.42c-1.121 -2.506 -1.45 -3.696 -1.45 -3.696" id="path124"/>
    <g id="g141" transform="translate(-145.104 -11.552)"/>
  </g>
</svg>
